<mxfile host="app.diagrams.net" modified="2023-12-05T05:16:12.801Z" agent="Mozilla/5.0 (X11; Linux x86_64) AppleWebKit/537.36 (KHTML, like Gecko) Chrome/119.0.0.0 Safari/537.36" etag="TbiZu0mhbki0ReW95fbd" version="22.1.5" type="github">
  <diagram id="C5RBs43oDa-KdzZeNtuy" name="Page-1">
    <mxGraphModel dx="1434" dy="800" grid="1" gridSize="10" guides="1" tooltips="1" connect="1" arrows="1" fold="1" page="1" pageScale="1" pageWidth="827" pageHeight="1169" math="0" shadow="0">
      <root>
        <mxCell id="WIyWlLk6GJQsqaUBKTNV-0" />
        <mxCell id="WIyWlLk6GJQsqaUBKTNV-1" parent="WIyWlLk6GJQsqaUBKTNV-0" />
        <mxCell id="NfqmnB7G-hZRdipbrKuz-27" value="SET key" style="swimlane;whiteSpace=wrap;html=1;fontFamily=Helvetica;fontSize=11;fontColor=default;" vertex="1" parent="WIyWlLk6GJQsqaUBKTNV-1">
          <mxGeometry x="50" y="70" width="250" height="400" as="geometry" />
        </mxCell>
        <mxCell id="WIyWlLk6GJQsqaUBKTNV-3" value="SET key value EX exire XX" style="rounded=1;whiteSpace=wrap;html=1;fontSize=12;glass=0;strokeWidth=1;shadow=0;" parent="NfqmnB7G-hZRdipbrKuz-27" vertex="1">
          <mxGeometry x="60" y="60" width="120" height="40" as="geometry" />
        </mxCell>
        <mxCell id="WIyWlLk6GJQsqaUBKTNV-6" value="key already exist?" style="rhombus;whiteSpace=wrap;html=1;shadow=0;fontFamily=Helvetica;fontSize=12;align=center;strokeWidth=1;spacing=6;spacingTop=3;" parent="NfqmnB7G-hZRdipbrKuz-27" vertex="1">
          <mxGeometry x="70" y="160" width="100" height="80" as="geometry" />
        </mxCell>
        <mxCell id="WIyWlLk6GJQsqaUBKTNV-2" value="" style="rounded=0;html=1;jettySize=auto;orthogonalLoop=1;fontSize=11;endArrow=block;endFill=0;endSize=8;strokeWidth=1;shadow=0;labelBackgroundColor=none;edgeStyle=orthogonalEdgeStyle;" parent="NfqmnB7G-hZRdipbrKuz-27" source="WIyWlLk6GJQsqaUBKTNV-3" target="WIyWlLk6GJQsqaUBKTNV-6" edge="1">
          <mxGeometry relative="1" as="geometry" />
        </mxCell>
        <mxCell id="NfqmnB7G-hZRdipbrKuz-10" value="SET key value KEEPTTL" style="rounded=1;whiteSpace=wrap;html=1;fontSize=12;glass=0;strokeWidth=1;shadow=0;" vertex="1" parent="NfqmnB7G-hZRdipbrKuz-27">
          <mxGeometry x="60" y="300" width="120" height="40" as="geometry" />
        </mxCell>
        <mxCell id="NfqmnB7G-hZRdipbrKuz-11" value="" style="edgeStyle=orthogonalEdgeStyle;shape=connector;rounded=0;orthogonalLoop=1;jettySize=auto;html=1;shadow=0;labelBackgroundColor=none;strokeColor=default;strokeWidth=1;align=center;verticalAlign=middle;fontFamily=Helvetica;fontSize=11;fontColor=default;endArrow=block;endFill=0;endSize=8;" edge="1" parent="NfqmnB7G-hZRdipbrKuz-27" source="WIyWlLk6GJQsqaUBKTNV-6" target="NfqmnB7G-hZRdipbrKuz-10">
          <mxGeometry relative="1" as="geometry" />
        </mxCell>
        <mxCell id="NfqmnB7G-hZRdipbrKuz-12" value="Yes" style="edgeLabel;html=1;align=center;verticalAlign=middle;resizable=0;points=[];fontSize=11;fontFamily=Helvetica;fontColor=default;" vertex="1" connectable="0" parent="NfqmnB7G-hZRdipbrKuz-11">
          <mxGeometry x="-0.1" y="1" relative="1" as="geometry">
            <mxPoint x="9" as="offset" />
          </mxGeometry>
        </mxCell>
        <mxCell id="NfqmnB7G-hZRdipbrKuz-29" value="" style="group" vertex="1" connectable="0" parent="WIyWlLk6GJQsqaUBKTNV-1">
          <mxGeometry x="350" y="60" width="430" height="570" as="geometry" />
        </mxCell>
        <mxCell id="NfqmnB7G-hZRdipbrKuz-13" value="GET key" style="rounded=1;whiteSpace=wrap;html=1;fontSize=12;glass=0;strokeWidth=1;shadow=0;" vertex="1" parent="NfqmnB7G-hZRdipbrKuz-29">
          <mxGeometry x="51.19047619047619" y="65.40983606557377" width="122.85714285714285" height="37.37704918032787" as="geometry" />
        </mxCell>
        <mxCell id="NfqmnB7G-hZRdipbrKuz-14" value="key exist" style="rhombus;whiteSpace=wrap;html=1;shadow=0;fontFamily=Helvetica;fontSize=12;align=center;strokeWidth=1;spacing=6;spacingTop=3;" vertex="1" parent="NfqmnB7G-hZRdipbrKuz-29">
          <mxGeometry x="61.42857142857142" y="158.85245901639345" width="102.38095238095238" height="74.75409836065575" as="geometry" />
        </mxCell>
        <mxCell id="NfqmnB7G-hZRdipbrKuz-17" value="" style="edgeStyle=orthogonalEdgeStyle;shape=connector;rounded=0;orthogonalLoop=1;jettySize=auto;html=1;shadow=0;labelBackgroundColor=none;strokeColor=default;strokeWidth=1;align=center;verticalAlign=middle;fontFamily=Helvetica;fontSize=11;fontColor=default;endArrow=block;endFill=0;endSize=8;" edge="1" parent="NfqmnB7G-hZRdipbrKuz-29" source="NfqmnB7G-hZRdipbrKuz-13" target="NfqmnB7G-hZRdipbrKuz-14">
          <mxGeometry relative="1" as="geometry" />
        </mxCell>
        <mxCell id="NfqmnB7G-hZRdipbrKuz-16" value="" style="edgeStyle=orthogonalEdgeStyle;shape=connector;rounded=0;orthogonalLoop=1;jettySize=auto;html=1;shadow=0;labelBackgroundColor=none;strokeColor=default;strokeWidth=1;align=center;verticalAlign=middle;fontFamily=Helvetica;fontSize=11;fontColor=default;endArrow=block;endFill=0;endSize=8;" edge="1" parent="NfqmnB7G-hZRdipbrKuz-29" source="NfqmnB7G-hZRdipbrKuz-14" target="NfqmnB7G-hZRdipbrKuz-15">
          <mxGeometry relative="1" as="geometry" />
        </mxCell>
        <mxCell id="NfqmnB7G-hZRdipbrKuz-18" value="Yes" style="edgeLabel;html=1;align=center;verticalAlign=middle;resizable=0;points=[];fontSize=11;fontFamily=Helvetica;fontColor=default;" vertex="1" connectable="0" parent="NfqmnB7G-hZRdipbrKuz-16">
          <mxGeometry x="-0.2" y="1" relative="1" as="geometry">
            <mxPoint x="9" as="offset" />
          </mxGeometry>
        </mxCell>
        <mxCell id="NfqmnB7G-hZRdipbrKuz-21" value="Dynamic query" style="rounded=1;whiteSpace=wrap;html=1;fontSize=12;glass=0;strokeWidth=1;shadow=0;" vertex="1" parent="NfqmnB7G-hZRdipbrKuz-29">
          <mxGeometry x="245.7142857142857" y="177.54098360655738" width="122.85714285714285" height="37.37704918032787" as="geometry" />
        </mxCell>
        <mxCell id="NfqmnB7G-hZRdipbrKuz-22" value="" style="edgeStyle=orthogonalEdgeStyle;shape=connector;rounded=0;orthogonalLoop=1;jettySize=auto;html=1;shadow=0;labelBackgroundColor=none;strokeColor=default;strokeWidth=1;align=center;verticalAlign=middle;fontFamily=Helvetica;fontSize=11;fontColor=default;endArrow=block;endFill=0;endSize=8;" edge="1" parent="NfqmnB7G-hZRdipbrKuz-29" source="NfqmnB7G-hZRdipbrKuz-14" target="NfqmnB7G-hZRdipbrKuz-21">
          <mxGeometry relative="1" as="geometry" />
        </mxCell>
        <mxCell id="NfqmnB7G-hZRdipbrKuz-23" value="No" style="edgeLabel;html=1;align=center;verticalAlign=middle;resizable=0;points=[];fontSize=11;fontFamily=Helvetica;fontColor=default;" vertex="1" connectable="0" parent="NfqmnB7G-hZRdipbrKuz-22">
          <mxGeometry x="-0.15" y="-1" relative="1" as="geometry">
            <mxPoint y="-11" as="offset" />
          </mxGeometry>
        </mxCell>
        <mxCell id="NfqmnB7G-hZRdipbrKuz-25" value="" style="edgeStyle=orthogonalEdgeStyle;shape=connector;rounded=0;orthogonalLoop=1;jettySize=auto;html=1;shadow=0;labelBackgroundColor=none;strokeColor=default;strokeWidth=1;align=center;verticalAlign=middle;fontFamily=Helvetica;fontSize=11;fontColor=default;endArrow=block;endFill=0;endSize=8;" edge="1" parent="NfqmnB7G-hZRdipbrKuz-29" source="NfqmnB7G-hZRdipbrKuz-21" target="NfqmnB7G-hZRdipbrKuz-24">
          <mxGeometry relative="1" as="geometry" />
        </mxCell>
        <mxCell id="NfqmnB7G-hZRdipbrKuz-28" value="Get key" style="swimlane;whiteSpace=wrap;html=1;fontFamily=Helvetica;fontSize=11;fontColor=default;" vertex="1" parent="NfqmnB7G-hZRdipbrKuz-29">
          <mxGeometry y="9.344262295081968" width="429.99999999999994" height="560.655737704918" as="geometry" />
        </mxCell>
        <mxCell id="NfqmnB7G-hZRdipbrKuz-35" style="edgeStyle=orthogonalEdgeStyle;shape=connector;rounded=0;orthogonalLoop=1;jettySize=auto;html=1;exitX=0.5;exitY=1;exitDx=0;exitDy=0;entryX=1;entryY=0.5;entryDx=0;entryDy=0;shadow=0;labelBackgroundColor=none;strokeColor=default;strokeWidth=1;align=center;verticalAlign=middle;fontFamily=Helvetica;fontSize=11;fontColor=default;endArrow=block;endFill=0;endSize=8;" edge="1" parent="NfqmnB7G-hZRdipbrKuz-28" source="NfqmnB7G-hZRdipbrKuz-30" target="NfqmnB7G-hZRdipbrKuz-33">
          <mxGeometry relative="1" as="geometry" />
        </mxCell>
        <mxCell id="NfqmnB7G-hZRdipbrKuz-30" value="&lt;div&gt;UPDATE value_items&lt;/div&gt;&lt;div&gt;SET enable = true&lt;/div&gt;&lt;div&gt;WHERE index_code = key;&lt;/div&gt;" style="rounded=1;whiteSpace=wrap;html=1;fontSize=12;glass=0;strokeWidth=1;shadow=0;" vertex="1" parent="NfqmnB7G-hZRdipbrKuz-28">
          <mxGeometry x="225.2380952380952" y="336.3934426229508" width="163.8095238095238" height="84.0983606557377" as="geometry" />
        </mxCell>
        <mxCell id="NfqmnB7G-hZRdipbrKuz-33" value="return value" style="rounded=1;whiteSpace=wrap;html=1;fontSize=12;glass=0;strokeWidth=1;shadow=0;" vertex="1" parent="NfqmnB7G-hZRdipbrKuz-28">
          <mxGeometry x="51.19047619047619" y="429.83606557377044" width="122.85714285714285" height="37.377049180327866" as="geometry" />
        </mxCell>
        <mxCell id="NfqmnB7G-hZRdipbrKuz-34" value="" style="edgeStyle=orthogonalEdgeStyle;shape=connector;rounded=0;orthogonalLoop=1;jettySize=auto;html=1;shadow=0;labelBackgroundColor=none;strokeColor=default;strokeWidth=1;align=center;verticalAlign=middle;fontFamily=Helvetica;fontSize=11;fontColor=default;endArrow=block;endFill=0;endSize=8;" edge="1" parent="NfqmnB7G-hZRdipbrKuz-28" source="NfqmnB7G-hZRdipbrKuz-15" target="NfqmnB7G-hZRdipbrKuz-33">
          <mxGeometry relative="1" as="geometry" />
        </mxCell>
        <mxCell id="NfqmnB7G-hZRdipbrKuz-15" value="EXPIRE key expire" style="rounded=1;whiteSpace=wrap;html=1;fontSize=12;glass=0;strokeWidth=1;shadow=0;" vertex="1" parent="NfqmnB7G-hZRdipbrKuz-28">
          <mxGeometry x="51.19047619047619" y="308.3606557377049" width="122.85714285714285" height="37.377049180327866" as="geometry" />
        </mxCell>
        <mxCell id="NfqmnB7G-hZRdipbrKuz-24" value="SET key value EX expire" style="rounded=1;whiteSpace=wrap;html=1;fontSize=12;glass=0;strokeWidth=1;shadow=0;" vertex="1" parent="NfqmnB7G-hZRdipbrKuz-28">
          <mxGeometry x="245.7142857142857" y="252.2950819672131" width="122.85714285714285" height="37.377049180327866" as="geometry" />
        </mxCell>
        <mxCell id="NfqmnB7G-hZRdipbrKuz-32" value="" style="edgeStyle=orthogonalEdgeStyle;shape=connector;rounded=0;orthogonalLoop=1;jettySize=auto;html=1;shadow=0;labelBackgroundColor=none;strokeColor=default;strokeWidth=1;align=center;verticalAlign=middle;fontFamily=Helvetica;fontSize=11;fontColor=default;endArrow=block;endFill=0;endSize=8;" edge="1" parent="NfqmnB7G-hZRdipbrKuz-28" source="NfqmnB7G-hZRdipbrKuz-24" target="NfqmnB7G-hZRdipbrKuz-30">
          <mxGeometry relative="1" as="geometry" />
        </mxCell>
        <mxCell id="NfqmnB7G-hZRdipbrKuz-36" value="KEYS *" style="rounded=1;whiteSpace=wrap;html=1;fontSize=12;glass=0;strokeWidth=1;shadow=0;" vertex="1" parent="WIyWlLk6GJQsqaUBKTNV-1">
          <mxGeometry x="870.0004761904762" y="119.99983606557376" width="122.85714285714285" height="37.37704918032787" as="geometry" />
        </mxCell>
      </root>
    </mxGraphModel>
  </diagram>
</mxfile>
